<?xml version="1.0" encoding="UTF-8"?>
<svg width="32px" height="32px" viewBox="0 0 32 32" version="1.1" xmlns="http://www.w3.org/2000/svg" xmlns:xlink="http://www.w3.org/1999/xlink">
    <!-- Generator: Sketch 52.5 (67469) - http://www.bohemiancoding.com/sketch -->
    <title>2_img/ico/RS/facebook</title>
    <desc>Created with Sketch.</desc>
    <defs>
        <path d="M20.3723579,5.00133331 C19.8828335,5.00051693 19.6656187,5.00021487 19.3940633,5.00006306 C18.6039331,4.99962137 17.9764312,5.00146289 17.3917567,5.0064066 C16.1194531,5.04366285 15.1045708,5.3573524 14.450801,5.96753899 L14.4397176,5.97772847 C13.8969603,6.46922398 13.5608926,7.23794612 13.4940833,8.06670042 C13.4704293,8.67192604 13.4675979,9.16242621 13.4735083,10.2739144 C13.4741313,10.3910578 13.4741313,10.3910578 13.4747184,10.5085214 C13.4777728,11.139813 13.4767116,11.5459709 13.4686338,11.9690442 L13.4500823,12.9406757 L12.4783176,12.9499094 C12.148653,12.9530418 11.8840627,12.9532935 11.2992614,12.9521668 L11.2948938,12.9521584 C11.1887422,12.9519539 11.0923715,12.9517953 11.003854,12.951692 C11.0038768,13.0504679 11.0039046,13.1587757 11.0039371,13.279279 C11.0041404,14.0313428 11.0041599,14.5517193 11.0038354,14.9947341 C11.095864,14.9946222 11.1958228,14.9944303 11.3057468,14.9941724 L11.3368187,14.9940994 C11.9058788,14.9927592 12.1597047,14.9929583 12.4790199,14.9962167 L13.4638441,15.0062663 L13.4688034,15.9911293 C13.4760772,17.4356436 13.4768273,18.7165075 13.4741565,21.1137954 C13.473987,21.2650324 13.473987,21.2650324 13.4738156,21.4162565 C13.470781,24.0939031 13.4713239,25.5602158 13.4794806,26.9971264 C13.897155,26.9966303 14.3884293,26.9967858 15.0872383,26.9973325 L15.0921354,26.9973364 C15.7179645,26.997826 16.1659086,26.9980062 16.5449675,26.9977016 C16.548161,25.6213421 16.5483595,24.2087275 16.5471407,21.6469072 C16.5469383,21.2214401 16.5469383,21.2214401 16.5467552,20.7959275 C16.5459117,18.7269969 16.5466097,17.3786017 16.5501092,15.9931146 L16.5526135,15.0016157 L17.5440977,14.9956585 C17.9775289,14.9930542 18.3233615,14.9928797 19.1003602,14.9939125 C19.213804,14.9940633 19.213804,14.9940633 19.3271433,14.9942021 C19.6194155,14.9945446 19.8661051,14.9945998 20.0872581,14.994254 C20.1889288,14.2602756 20.2705183,13.5838041 20.3337406,12.9371653 C20.1106853,12.937165 19.8520307,12.937295 19.533557,12.9375195 C18.5496132,12.9382131 18.1119465,12.9380027 17.5640763,12.935791 L16.5686812,12.9317728 L16.5681133,11.9363697 C16.5679947,11.7284223 16.5676157,11.5617749 16.5665486,11.1863035 C16.565736,10.9003804 16.5654154,10.7728909 16.5651714,10.6135757 C16.5642536,10.0143963 16.566135,9.55637515 16.5724929,9.10865117 L16.5894371,8.93900351 C16.7840565,7.8984509 17.8050875,7.14214379 18.8028464,7.20468466 C19.1792167,7.20623703 19.5449529,7.20655934 20.1118739,7.20622002 C20.2233467,7.20614952 20.2233467,7.20614952 20.3348865,7.20607142 C20.3675236,7.20604857 20.3990778,7.20602701 20.4296268,7.20600676 C20.4312828,6.48689267 20.4312893,5.75341597 20.4297174,5.00142865 C20.4109871,5.00139763 20.3918732,5.00136585 20.3723579,5.00133331 Z M17.3536736,3.00687389 C17.966009,3.00147707 18.5993266,2.99961848 19.3951814,3.00006337 C19.6677223,3.00021573 19.8857995,3.00051899 20.3756934,3.00133609 C20.9015611,3.00221311 21.1352597,3.00252802 21.4271449,3.00264096 L22.4229491,3.00302627 L22.4267507,3.99882324 C22.4323541,5.466567 22.4323393,6.86098488 22.4262128,8.21072964 L22.4216866,9.20791403 L21.4244934,9.20618922 C21.1226808,9.20566718 20.8808649,9.20568963 20.3362869,9.20607093 C20.2247132,9.20614905 20.2247132,9.20614905 20.113071,9.20621966 C19.5432388,9.20656072 19.174864,9.20623609 18.7377766,9.20281726 C18.683618,9.19951041 18.6035123,9.2499371 18.5703703,9.28439859 C18.565729,9.67496258 18.5643673,10.0871242 18.5651691,10.6105122 C18.5653293,10.715095 18.5655226,10.8058241 18.5658697,10.9378449 C18.827522,10.9379321 19.1351744,10.9377998 19.5321473,10.93752 C20.4776312,10.9368536 20.8981615,10.9370175 21.4245486,10.9389516 L22.4923278,10.9428748 L22.41848,12.0081045 C22.3308971,13.2714596 22.1763503,14.5784691 21.9428525,16.1379507 L21.8164767,16.9819868 L20.9630682,16.9898312 C20.4924645,16.9941569 20.0449098,16.9950445 19.3247997,16.9942007 C19.211198,16.9940616 19.211198,16.9940616 19.0977017,16.9939107 C18.8856336,16.9936288 18.7059692,16.9934374 18.5480609,16.9933612 C18.5463642,18.0657209 18.5461136,19.2217494 18.546755,20.7951121 C18.5469381,21.2205112 18.5469381,21.2205112 18.5471405,21.6459557 C18.5486514,24.8216725 18.5479858,26.2333828 18.5421369,27.9986522 L18.5388478,28.9913498 L17.5461527,28.9953309 C16.8633797,28.9980691 16.3176822,28.9982958 15.0905706,28.9973357 C13.7905201,28.9963186 13.2110331,28.9966525 12.4909806,28.9999884 L11.4943303,29.0046057 L11.4863796,28.0079765 C11.471758,26.1751425 11.4700818,24.709792 11.4738169,21.4139899 C11.4739883,21.2627722 11.4739883,21.2627722 11.4741577,21.1115673 C11.4762049,19.2740362 11.4762392,18.0940882 11.472865,16.9938014 C11.4310353,16.9938882 11.3873242,16.993986 11.3415286,16.9940938 L11.3104377,16.9941669 C10.6706511,16.9956676 10.3596496,16.9949682 9.9870744,16.9892913 L9,16.9742514 L9.00231225,15.9870651 C9.00407275,15.2354408 9.00430314,14.6337712 9.00393721,13.2798196 C9.00375825,12.6177348 9.00372459,12.3232986 9.00385474,11.9553096 L9.00420407,10.9675719 L9.99187085,10.9557351 C10.3571197,10.9513577 10.6475446,10.9509075 11.2987472,10.9521621 C11.3642218,10.9522883 11.4217678,10.9523908 11.476201,10.9524764 C11.4760084,10.8198023 11.475507,10.6763604 11.4747418,10.5181981 C11.4741587,10.401533 11.4741587,10.401533 11.4735366,10.2845495 C11.4674688,9.14346849 11.470414,8.63324817 11.4980014,7.94827179 C11.6052206,6.60174784 12.1481707,5.35763872 13.0916704,4.50029844 C14.1567601,3.50935923 15.6217534,3.05737983 17.3536736,3.00687389 Z" id="path-1"></path>
    </defs>
    <g id="2_img/ico/RS/facebook" stroke="none" stroke-width="1" fill="none" fill-rule="evenodd">
        <mask id="mask-2" fill="white">
            <use xlink:href="#path-1"></use>
        </mask>
        <use id="facebook" fill="#000000" fill-rule="nonzero" xlink:href="#path-1"></use>
        <g id="1_bg/color/black" mask="url(#mask-2)" fill="#000000">
            <rect id="Rectangle" x="0" y="0" width="32" height="32"></rect>
        </g>
    </g>
</svg>