<?xml version="1.0" encoding="UTF-8"?>
<svg width="32px" height="32px" viewBox="0 0 32 32" version="1.1" xmlns="http://www.w3.org/2000/svg" xmlns:xlink="http://www.w3.org/1999/xlink">
    <!-- Generator: Sketch 52.5 (67469) - http://www.bohemiancoding.com/sketch -->
    <title>2_img/ico/RS/insta</title>
    <desc>Created with Sketch.</desc>
    <defs>
        <path d="M4,9.8250446 C4,6.6079613 6.61410773,4 9.8250446,4 L22.1749554,4 C25.3920387,4 28,6.61410773 28,9.8250446 L28,22.1749554 C28,25.3920387 25.3858923,28 22.1749554,28 L9.8250446,28 C6.6079613,28 4,25.3858923 4,22.1749554 L4,9.8250446 Z M6,9.8250446 L6,22.1749554 C6,24.2837716 7.71497839,26 9.8250446,26 L22.1749554,26 C24.2837716,26 26,24.2850216 26,22.1749554 L26,9.8250446 C26,7.71622836 24.2850216,6 22.1749554,6 L9.8250446,6 C7.71622836,6 6,7.71497839 6,9.8250446 Z M12,16 C12,18.2056343 13.7929739,20 16,20 C18.2056343,20 20,18.2070261 20,16 C20,13.7943657 18.2070261,12 16,12 C13.7943657,12 12,13.7929739 12,16 Z M10,16 C10,12.6880568 12.6901434,10 16,10 C19.3119432,10 22,12.6901434 22,16 C22,19.3119432 19.3098566,22 16,22 C12.6880568,22 10,19.3098566 10,16 Z M21,9.5 C21,8.67157288 21.6657972,8 22.5,8 C23.3284271,8 24,8.66579723 24,9.5 C24,10.3284271 23.3342028,11 22.5,11 C21.6715729,11 21,10.3342028 21,9.5 Z" id="path-1"></path>
    </defs>
    <g id="2_img/ico/RS/insta" stroke="none" stroke-width="1" fill="none" fill-rule="evenodd">
        <mask id="mask-2" fill="white">
            <use xlink:href="#path-1"></use>
        </mask>
        <use id="insta" fill="#000000" fill-rule="nonzero" xlink:href="#path-1"></use>
        <g id="1_bg/color/black" mask="url(#mask-2)" fill="#000000">
            <rect id="Rectangle" x="0" y="0" width="32" height="32"></rect>
        </g>
    </g>
</svg>