<?xml version="1.0" encoding="UTF-8"?>
<svg width="32px" height="32px" viewBox="0 0 32 32" version="1.1" xmlns="http://www.w3.org/2000/svg" xmlns:xlink="http://www.w3.org/1999/xlink">
    <!-- Generator: Sketch 52.5 (67469) - http://www.bohemiancoding.com/sketch -->
    <title>2_img/ico/RS/twitter</title>
    <desc>Created with Sketch.</desc>
    <defs>
        <path d="M12.6837435,25.6622348 C12.8191346,25.6622348 12.9274475,25.6351566 13.0628387,25.6351566 C13.9022636,25.5810001 14.7416886,25.4185308 15.5540353,25.201905 C18.2077013,24.4707929 20.4281157,23.0627252 22.2152786,21.0047802 C24.3544583,18.4865053 25.5188219,15.5079006 25.6542131,12.177279 L25.6542131,11.4461669 C26.1957776,11.0399935 26.7102638,10.5525855 27.1705936,10.011021 C27.4684541,9.6860823 27.6850799,9.38822183 27.9017057,9.06328314 C28.0370968,8.84665734 28.0370968,8.60295332 27.8746275,8.41340575 C27.7392364,8.22385818 27.4684541,8.16970173 27.2518283,8.2509364 C27.0352025,8.33217108 26.8185767,8.41340575 26.6290292,8.49464042 C26.9268896,8.06138883 27.1705936,7.60105901 27.3601412,7.05949452 C27.4413759,6.84286873 27.3601412,6.5991647 27.1976719,6.46377358 C27.0081243,6.32838246 26.7644203,6.30130423 26.5748727,6.40961713 L26.5207163,6.43669536 C26.4394816,6.49085181 26.249934,6.57208648 26.2228558,6.5991647 C25.4646655,7.00533807 24.7606317,7.27612032 24.0024414,7.43858967 C22.8380777,6.35546068 21.43001,5.86805264 19.8053166,6.03052199 C18.7492658,6.13883489 17.7744497,6.54500826 16.962103,7.27612032 C15.878974,8.2509364 15.2561748,9.46945651 15.1749402,10.9316806 C15.1478619,11.2024629 15.1478619,11.4732451 15.1749402,11.7169491 C14.6875321,11.6627927 14.2272023,11.581558 13.8210289,11.5003233 C11.0048936,10.8775242 8.5949316,9.44237828 6.69945588,7.24904209 L6.50990831,7.0324163 C6.40159541,6.89702517 6.23912606,6.8157905 6.04957849,6.84286873 C5.88710915,6.84286873 5.7246398,6.95118162 5.64340512,7.11365097 C4.96644951,8.30509285 4.77690194,9.60484763 5.07476241,10.9046024 C5.21015353,11.5274016 5.45385755,12.1231225 5.80587447,12.6376088 C5.77879625,12.6376088 5.7246398,12.6105306 5.69756157,12.5834523 C5.508014,12.5022177 5.31846643,12.5022177 5.15599708,12.6105306 C4.99352773,12.6917652 4.88521484,12.8813128 4.88521484,13.0708604 C4.88521484,14.3435369 5.26430998,15.4537441 6.02250027,16.401482 C6.29328251,16.7264207 6.59114298,17.0242812 6.9431599,17.2950634 C6.834847,17.3221416 6.72653411,17.3762981 6.64529943,17.484611 C6.53698653,17.6470803 6.48283009,17.8366279 6.56406476,18.0261755 C7.24102037,19.7591818 8.40538403,20.8964673 10.0300775,21.3838753 C9.40727834,21.7358922 8.73032272,22.0337527 8.02628889,22.2233003 C6.91608168,22.548239 5.77879625,22.6294736 4.58735437,22.5211607 C4.37072857,22.5211607 4.15410277,22.6294736 4.04578988,22.8190212 C3.9645552,23.0085688 3.99163343,23.2522728 4.12702455,23.4147422 C4.20825922,23.5230551 4.2894939,23.5772115 4.34365035,23.6042897 C5.7246398,24.4707929 7.18686392,25.0665139 8.73032272,25.3914525 C9.35312189,25.5268437 10.0300775,25.6622348 10.7341113,25.6622348 L12.6837435,25.6622348 Z M2.55510652,24.6515602 C1.96283648,23.9076512 1.84043386,22.8876698 2.20749982,22.0311826 L2.25255582,21.9260519 L2.30930359,21.8267433 C2.78413004,20.995797 3.67011781,20.5211607 4.58735437,20.5211607 L4.76842586,20.5293743 C5.0736916,20.5571258 5.36866176,20.569338 5.65623075,20.5654615 C5.28655786,20.0391145 4.975156,19.4532601 4.7257747,18.8140141 C4.5685182,18.4470822 4.506583,18.0794851 4.52268041,17.7245529 C4.50203155,17.7002208 4.48139464,17.6756625 4.46076265,17.6508721 C3.41511986,16.3438186 2.88521484,14.7919539 2.88521484,13.0708604 C2.88521484,12.6173546 3.00871634,12.1732445 3.23459778,11.7875205 C3.1935484,11.6432235 3.15709084,11.4977035 3.12529777,11.3513547 C2.71677033,9.56868951 2.98033563,7.76958803 3.88660196,6.15728834 C4.28303463,5.41661792 5.03666281,4.90200306 5.89812377,4.8476378 C6.75613328,4.76988655 7.55283547,5.13466374 8.0150617,5.71540708 L8.21268176,5.94131603 C9.63889602,7.59164968 11.3924953,8.72977732 13.4124068,9.33170845 C13.7732258,7.97636213 14.5239314,6.77974992 15.6241735,5.78953203 C16.7399,4.78537816 18.1061557,4.19430303 19.6063091,4.04044761 C21.382912,3.86278732 23.0241482,4.272425 24.4324944,5.22912246 C24.6774377,5.13469082 24.9279003,5.02002466 25.1932346,4.88129252 C25.2021293,4.87622287 25.2116715,4.87087142 25.2222434,4.8649425 C25.3064201,4.81659368 25.3064201,4.81659368 25.3588136,4.78911026 C25.4331598,4.75115826 25.441093,4.74710853 25.4746587,4.73036618 L25.514919,4.703526 L25.6489047,4.63653317 C26.530772,4.16677437 27.5768139,4.27678209 28.3601483,4.83630664 L28.4780407,4.92733102 C29.1211802,5.46328067 29.4616126,6.29245403 29.3883094,7.1035356 C29.4082265,7.12743246 29.4277787,7.15180682 29.4469515,7.17665821 C30.1471285,8.0482163 30.1670251,9.2123248 29.5658063,10.1726835 C29.2609563,10.6299585 28.9903263,10.9856436 28.6944723,11.3063178 C28.3665006,11.6921668 28.0153127,12.0555435 27.6467111,12.3904905 C27.4680554,16.1100166 26.1422805,19.4710818 23.7253448,22.3161535 C21.6736071,24.6787605 19.1097993,26.2967734 16.0693606,27.1343749 C15.0680959,27.4013788 14.1186557,27.5711973 13.1916032,27.6310072 L13.0628387,27.6351566 C13.1026908,27.6351566 13.1146142,27.6341898 13.0941541,27.6364631 C12.9318362,27.6544985 12.8364216,27.6622348 12.6837435,27.6622348 L10.7341113,27.6622348 C9.9581144,27.6622348 9.3077663,27.5636972 8.31830176,27.3485521 C6.56176859,26.9787557 4.89711796,26.3044013 3.33326303,25.3312815 C3.04495109,25.167568 2.77967065,24.9410807 2.55510652,24.6515602 Z" id="path-1"></path>
    </defs>
    <g id="2_img/ico/RS/twitter" stroke="none" stroke-width="1" fill="none" fill-rule="evenodd">
        <mask id="mask-2" fill="white">
            <use xlink:href="#path-1"></use>
        </mask>
        <use id="twitter" fill="#000000" fill-rule="nonzero" xlink:href="#path-1"></use>
        <g id="1_bg/color/black" mask="url(#mask-2)" fill="#000000">
            <rect id="Rectangle" x="0" y="0" width="32" height="32"></rect>
        </g>
    </g>
</svg>