<?xml version="1.0" encoding="UTF-8"?>
<svg width="32px" height="32px" viewBox="0 0 32 32" version="1.1" xmlns="http://www.w3.org/2000/svg" xmlns:xlink="http://www.w3.org/1999/xlink">
    <!-- Generator: Sketch 52.5 (67469) - http://www.bohemiancoding.com/sketch -->
    <title>2_img/ico/RS/youtube</title>
    <desc>Created with Sketch.</desc>
    <defs>
        <path d="M2.84217094e-14,9.8250446 C2.84217094e-14,6.6079613 2.61146763,4 5.82548081,4 L26.1745192,4 C29.3918434,4 32,6.61410773 32,9.8250446 L32,22.1749554 C32,25.3920387 29.3885324,28 26.1745192,28 L5.82548081,28 C2.6081566,28 2.84217094e-14,25.3858923 2.84217094e-14,22.1749554 L2.84217094e-14,9.8250446 Z M2,9.8250446 L2,22.1749554 C2,24.2837381 3.71514029,26 5.82548081,26 L26.1745192,26 C28.2853156,26 30,24.2861169 30,22.1749554 L30,9.8250446 C30,7.71626186 28.2848597,6 26.1745192,6 L5.82548081,6 C3.71468438,6 2,7.71388312 2,9.8250446 Z M22.4822882,16.3760126 L17.481549,19.1291664 L12.481549,21.8764192 C11.8151052,22.2425971 11,21.7604167 11,21 L11,10 C11,9.23958327 11.8151052,8.75740292 12.481549,9.12358083 L17.4822882,11.8712402 L22.4822882,14.6239874 C23.1725706,15.004022 23.1725706,15.995978 22.4822882,16.3760126 Z M16.518451,13.6236719 L13,11.6904571 L13,19.309543 L16.5177118,17.3767347 L19.9265513,15.4999999 L16.518451,13.6236719 Z" id="path-1"></path>
    </defs>
    <g id="2_img/ico/RS/youtube" stroke="none" stroke-width="1" fill="none" fill-rule="evenodd">
        <mask id="mask-2" fill="white">
            <use xlink:href="#path-1"></use>
        </mask>
        <use id="youtube" fill="#000000" fill-rule="nonzero" xlink:href="#path-1"></use>
        <g id="1_bg/color/black" mask="url(#mask-2)" fill="#000000">
            <rect id="Rectangle" x="0" y="0" width="32" height="32"></rect>
        </g>
    </g>
</svg>